HIERARCHY
ROOT Hips
{
	OFFSET 0.00000 0.00000 0.00000
	CHANNELS 6 Xposition Yposition Zposition Zrotation Yrotation Xrotation 
	JOINT LHipJoint
	{
		OFFSET 0 0 0
		CHANNELS 3 Zrotation Yrotation Xrotation
		JOINT LeftUpLeg
		{
			OFFSET 1.59801 -1.77853 0.57028
			CHANNELS 3 Zrotation Yrotation Xrotation
			JOINT LeftLeg
			{
				OFFSET 2.39439 -6.57854 0.00000
				CHANNELS 3 Zrotation Yrotation Xrotation
				JOINT LeftFoot
				{
					OFFSET 2.69334 -7.39989 0.00000
					CHANNELS 3 Zrotation Yrotation Xrotation
					JOINT LeftToeBase
					{
						OFFSET 0.09553 -0.26245 1.73747
						CHANNELS 3 Zrotation Yrotation Xrotation
						End Site
						{
							OFFSET 0.00000 -0.00000 0.89391
						}
					}
				}
			}
		}
	}
	JOINT RHipJoint
	{
		OFFSET 0 0 0
		CHANNELS 3 Zrotation Yrotation Xrotation
		JOINT RightUpLeg
		{
			OFFSET -1.54704 -1.77852 0.57028
			CHANNELS 3 Zrotation Yrotation Xrotation
			JOINT RightLeg
			{
				OFFSET -2.40286 -6.60180 0.00000
				CHANNELS 3 Zrotation Yrotation Xrotation
				JOINT RightFoot
				{
					OFFSET -2.63873 -7.24984 0.00000
					CHANNELS 3 Zrotation Yrotation Xrotation
					JOINT RightToeBase
					{
						OFFSET -0.15631 -0.42945 1.84436
						CHANNELS 3 Zrotation Yrotation Xrotation
						End Site
						{
							OFFSET -0.00000 -0.00000 0.95734
						}
					}
				}
			}
		}
	}
	JOINT LowerBack
	{
		OFFSET 0 0 0
		CHANNELS 3 Zrotation Yrotation Xrotation
		JOINT Spine
		{
			OFFSET -0.00436 1.89866 -0.04018
			CHANNELS 3 Zrotation Yrotation Xrotation
			JOINT Spine1
			{
				OFFSET 0.02031 1.88273 0.09634
				CHANNELS 3 Zrotation Yrotation Xrotation
				JOINT Neck
				{
					OFFSET 0 0 0
					CHANNELS 3 Zrotation Yrotation Xrotation
					JOINT Neck1
					{
						OFFSET -0.13105 1.89371 0.23083
						CHANNELS 3 Zrotation Yrotation Xrotation
						JOINT Head
						{
							OFFSET 0.17062 1.83990 -0.54062
							CHANNELS 3 Zrotation Yrotation Xrotation
							End Site
							{
								OFFSET 0.04576 1.94782 -0.21839
							}
						}
					}
				}
				JOINT LeftShoulder
				{
					OFFSET 0 0 0
					CHANNELS 3 Zrotation Yrotation Xrotation
					JOINT LeftArm
					{
						OFFSET 3.12424 1.09204 0.22226
						CHANNELS 3 Zrotation Yrotation Xrotation
						JOINT LeftForeArm
						{
							OFFSET 5.29277 -0.00000 0.00000
							CHANNELS 3 Zrotation Yrotation Xrotation
							JOINT LeftHand
							{
								OFFSET 2.85226 -0.00000 0.00000
								CHANNELS 3 Zrotation Yrotation Xrotation
								JOINT LeftFingerBase
								{
									OFFSET 0 0 0
									CHANNELS 3 Zrotation Yrotation Xrotation
									JOINT LeftHandIndex1
									{
										OFFSET 0.60210 -0.00000 0.00000
										CHANNELS 3 Zrotation Yrotation Xrotation
										End Site
										{
											OFFSET 0.48543 -0.00000 0.00000
										}
									}
								}
								JOINT LThumb
								{
									OFFSET 0 0 0
									CHANNELS 3 Zrotation Yrotation Xrotation
									End Site
									{
										OFFSET 0.49284 -0.00000 0.49284
									}
								}
							}
						}
					}
				}
				JOINT RightShoulder
				{
					OFFSET 0 0 0
					CHANNELS 3 Zrotation Yrotation Xrotation
					JOINT RightArm
					{
						OFFSET -2.91709 1.01504 0.30199
						CHANNELS 3 Zrotation Yrotation Xrotation
						JOINT RightForeArm
						{
							OFFSET -5.13304 -0.00000 0.00000
							CHANNELS 3 Zrotation Yrotation Xrotation
							JOINT RightHand
							{
								OFFSET -2.74305 -0.00000 0.00000
								CHANNELS 3 Zrotation Yrotation Xrotation
								JOINT RightFingerBase
								{
									OFFSET 0 0 0
									CHANNELS 3 Zrotation Yrotation Xrotation
									JOINT RightHandIndex1
									{
										OFFSET -0.76798 -0.00000 0.00000
										CHANNELS 3 Zrotation Yrotation Xrotation
										End Site
										{
											OFFSET -0.61916 -0.00000 0.00000
										}
									}
								}
								JOINT RThumb
								{
									OFFSET 0 0 0
									CHANNELS 3 Zrotation Yrotation Xrotation
									End Site
									{
										OFFSET -0.62862 -0.00000 0.62862
									}
								}
							}
						}
					}
				}
			}
		}
	}
}
MOTION
Frames: 14
Frame Time: .0083333
-0.1471 15.9700 -2.2593 1.6921 3.3956 36.4165 0.0000 0.0000 0.0000 -0.3018 -23.2882 -69.1694 7.3029 15.5817 50.0107 0.7627 -5.9651 -15.5669 1.5593 -7.8806 -22.3519 0.0000 0.0000 0.0000 2.2452 19.1534 -68.8482 -7.8956 -16.0419 52.1859 -1.2850 -0.2317 -21.5244 -1.2164 6.9960 -19.7035 -2.5089 0.2068 20.1690 0.9397 -0.1913 1.0815 2.5203 0.0550 -10.1336 -18.2652 -10.0335 -3.9751 31.7791 -10.5931 -17.0153 13.3727 -5.8306 -0.8404 -0.0000 0.0000 0.0000 -87.1244 -61.5078 44.8097 108.6886 -58.6383 -76.1108 -0.0000 -0.0000 15.9550 -14.8448 33.2295 -8.2641 -7.1250 0.0000 -0.0000 -50.1383 55.9997 -16.4196 -0.0000 0.0000 0.0000 92.1781 56.4467 42.4795 -108.5784 58.6548 -76.0167 0.0000 0.0000 30.1627 11.5454 1.6335 0.3336 7.1250 -0.0000 -0.0000 28.4010 -27.6151 13.6231
-0.1542 15.9417 -2.2816 1.7852 3.1767 35.9541 0.0000 0.0000 0.0000 -0.5577 -23.2423 -68.9360 7.4137 15.6706 50.4222 0.7816 -5.9343 -15.7576 1.5849 -7.9418 -22.5375 0.0000 0.0000 0.0000 2.1724 19.1870 -68.7441 -8.0386 -16.1476 52.7016 -1.3061 -0.1041 -21.6562 -1.2324 7.0403 -19.8349 -2.7123 0.3148 20.6169 0.8931 -0.1117 1.2077 2.5664 0.1013 -10.2456 -18.3657 -10.0324 -3.8403 31.8236 -10.5677 -17.2287 13.4336 -5.8326 -0.9174 -0.0000 -0.0000 0.0000 -87.4199 -62.3903 44.7373 107.6448 -58.7903 -75.2187 -0.0000 -0.0000 15.9171 -14.8650 33.0774 -8.2426 -7.1250 0.0000 -0.0000 -49.9996 55.8889 -16.2096 -0.0000 -0.0000 0.0000 92.1408 57.0389 42.2534 -109.0525 58.5830 -76.4214 0.0000 0.0000 30.3334 11.6995 1.3478 0.2791 7.1250 -0.0000 -0.0000 28.5790 -27.8623 13.5375
-0.1692 15.9382 -2.2924 1.8025 2.8944 35.3619 0.0000 0.0000 0.0000 -0.8761 -23.0777 -68.3280 7.4716 15.7165 50.6361 0.8014 -5.9051 -15.9565 1.5659 -7.8963 -22.3997 0.0000 0.0000 0.0000 2.2010 19.4197 -68.2538 -8.1188 -16.2059 52.9895 -1.3234 -0.0948 -21.7965 -1.2073 6.9708 -19.6289 -3.0339 0.4972 21.2364 0.8644 0.0319 1.3413 2.6820 0.1850 -10.4480 -18.4141 -10.0353 -3.6360 31.8266 -10.5595 -17.4460 13.4704 -5.8491 -1.0116 0.0000 -0.0000 0.0000 -87.3430 -62.9972 44.5571 107.1744 -58.8556 -74.8163 -0.0000 -0.0000 16.0239 -15.0059 32.9732 -8.3003 -7.1250 0.0000 -0.0000 -50.0135 55.7865 -16.0807 0.0000 -0.0000 0.0000 92.2296 57.4323 42.1409 -109.2426 58.5536 -76.5836 0.0000 0.0000 30.5245 11.7951 1.2297 0.2568 7.1250 -0.0000 -0.0000 28.6743 -27.9624 13.5161
-0.1781 15.9398 -2.2971 1.9214 2.6390 35.2208 0.0000 0.0000 0.0000 -1.0965 -23.0463 -68.1184 7.4758 15.7198 50.6516 0.8078 -5.8028 -16.0197 1.5318 -7.8139 -22.1501 0.0000 0.0000 0.0000 2.0026 19.5613 -68.1776 -8.1477 -16.2268 53.0930 -1.3217 -0.1502 -21.8011 -1.2295 7.0323 -19.8110 -3.3776 0.6232 21.3924 0.8194 0.1048 1.3754 2.8087 0.2347 -10.5017 -18.4136 -10.0474 -3.5107 31.7562 -10.5789 -17.5558 13.4541 -5.8687 -1.0668 0.0000 -0.0000 0.0000 -86.6164 -63.4866 44.0776 107.3509 -58.8313 -74.9674 -0.0000 -0.0000 16.0700 -15.1349 33.1737 -8.4185 -7.1250 0.0000 -0.0000 -50.3286 55.9000 -16.3757 0.0000 -0.0000 0.0000 92.3854 57.6436 42.2212 -109.4492 58.5213 -76.7599 0.0000 0.0000 30.5471 12.1226 1.1472 0.2464 7.1250 -0.0000 -0.0000 28.9164 -28.0162 13.6206
-0.1812 15.9422 -2.2983 2.0775 2.4734 35.4706 0.0000 0.0000 0.0000 -1.1461 -23.1294 -68.2890 7.4297 15.6833 50.4815 0.7999 -5.7505 -15.9408 1.4314 -7.5649 -21.4003 0.0000 0.0000 0.0000 1.6712 19.6088 -68.4629 -8.1294 -16.2136 53.0276 -1.3084 -0.1634 -21.6953 -1.2278 7.0276 -19.7970 -3.4980 0.6622 21.1451 0.7190 0.1240 1.3192 2.7593 0.2457 -10.4300 -18.4007 -10.1021 -3.5349 31.6634 -10.6645 -17.5370 13.4001 -5.9051 -1.0462 -0.0000 -0.0000 0.0000 -85.6229 -63.8159 43.6138 107.8645 -58.7591 -75.4066 -0.0000 -0.0000 15.8764 -15.3570 33.6977 -8.6637 -7.1250 0.0000 -0.0000 -51.0620 56.2171 -17.1438 -0.0000 -0.0000 0.0000 92.5161 57.6666 42.3306 -109.4859 58.5155 -76.7912 0.0000 0.0000 30.4562 12.3187 1.1963 0.2612 7.1250 -0.0000 -0.0000 29.0348 -27.9600 13.7386
-0.1869 15.9539 -2.2956 2.1477 2.4688 35.8510 0.0000 0.0000 0.0000 -1.0502 -23.1889 -68.5349 7.3381 15.6101 50.1417 0.7877 -5.6824 -15.8172 1.4312 -7.5643 -21.3983 0.0000 0.0000 0.0000 1.4411 19.6800 -68.7609 -8.0711 -16.1713 52.8184 -1.2901 -0.2844 -21.5859 -1.2518 7.0935 -19.9925 -3.4520 0.6304 20.6887 0.6888 0.1059 1.2769 2.7019 0.2306 -10.2237 -18.4564 -10.1482 -3.6446 31.5397 -10.7323 -17.5002 13.3434 -5.9201 -1.0090 0.0000 0.0000 0.0000 -85.1460 -63.8804 43.2916 107.7955 -58.7689 -75.3477 -0.0000 -0.0000 16.0608 -15.4005 33.8317 -8.7190 -7.1250 0.0000 -0.0000 -51.2402 56.3002 -17.3410 0.0000 0.0000 0.0000 92.5752 57.5670 42.6175 -109.4346 58.5236 -76.7474 0.0000 0.0000 30.2562 12.3265 1.0212 0.2231 7.1250 -0.0000 -0.0000 29.0870 -28.1163 13.6438
-0.1925 15.9787 -2.2888 2.2631 2.4792 36.0067 0.0000 0.0000 0.0000 -1.1488 -23.2510 -68.3710 7.1969 15.4955 49.6152 0.7685 -5.5878 -15.6217 1.4409 -7.5888 -21.4718 0.0000 0.0000 0.0000 1.2898 19.7127 -68.6549 -7.9573 -16.0877 52.4086 -1.2705 -0.4042 -21.4635 -1.2596 7.1145 -20.0550 -3.4667 0.5783 20.5250 0.6914 0.0412 1.3038 2.7305 0.1981 -10.0982 -18.5819 -10.1749 -3.7706 31.4048 -10.7709 -17.4679 13.2996 -5.9152 -0.9743 -0.0000 -0.0000 0.0000 -84.9137 -63.6788 42.9580 107.3407 -58.8328 -74.9586 -0.0000 -0.0000 16.3356 -15.3297 33.5707 -8.6194 -7.1250 0.0000 -0.0000 -50.9057 56.1350 -16.9594 -0.0000 -0.0000 0.0000 92.6598 57.3496 43.1212 -109.1516 58.5677 -76.5060 0.0000 0.0000 29.9343 12.2143 0.8876 0.1921 7.1250 -0.0000 -0.0000 29.0475 -28.2428 13.5172
-0.1945 16.0087 -2.2805 2.4577 2.4948 36.2460 0.0000 0.0000 0.0000 -1.3102 -23.3843 -68.2035 7.0156 15.3450 48.9332 0.7420 -5.4012 -15.3487 1.5256 -7.7989 -22.1049 0.0000 0.0000 0.0000 1.0121 19.7068 -68.5541 -7.8010 -15.9709 51.8426 -1.2397 -0.5387 -21.2516 -1.1901 6.9227 -19.4865 -3.3892 0.5072 20.3526 0.6014 -0.0380 1.2573 2.6084 0.1547 -10.0491 -18.5886 -10.2116 -3.8411 31.2371 -10.8347 -17.4181 13.2193 -5.9313 -0.9502 0.0000 -0.0000 0.0000 -84.1649 -63.1786 42.6969 107.5399 -58.8050 -75.1290 -0.0000 -0.0000 16.0031 -15.3938 33.6515 -8.6748 -7.1250 0.0000 -0.0000 -51.0449 56.1774 -17.0824 0.0000 -0.0000 0.0000 92.7951 56.8227 43.4738 -108.9974 58.5914 -76.3744 0.0000 0.0000 29.8968 12.5984 1.1383 0.2544 7.1250 -0.0000 -0.0000 29.2375 -27.9943 13.8357
-0.2062 16.0669 -2.2624 2.3692 2.4365 36.1110 0.0000 0.0000 0.0000 -1.4968 -23.2041 -67.4057 6.7905 15.1529 48.0774 0.7258 -5.2880 -15.1784 1.5913 -7.9573 -22.5844 0.0000 0.0000 0.0000 1.1379 20.0303 -67.7782 -7.5854 -15.8057 51.0553 -1.2054 -0.8740 -21.0841 -1.1952 6.9370 -19.5287 -3.2905 0.5723 20.5621 0.5855 0.0606 1.2761 2.5076 0.1976 -10.1507 -18.5548 -10.2502 -3.8128 30.9920 -10.9076 -17.4339 13.1106 -5.9595 -0.9709 0.0000 0.0000 0.0000 -83.5949 -62.3943 42.7431 107.8697 -58.7584 -75.4111 -0.0000 -0.0000 15.5014 -14.8617 33.6580 -8.3667 -7.1250 0.0000 -0.0000 -50.5976 56.2948 -17.0254 0.0000 0.0000 0.0000 92.9115 56.0948 43.5901 -108.7324 58.6317 -76.1482 0.0000 0.0000 30.0648 13.1406 1.7484 0.4081 7.1250 -0.0000 -0.0000 29.4344 -27.4141 14.4363
-0.2129 16.1148 -2.2503 2.3876 2.4504 36.3919 0.0000 0.0000 0.0000 -1.5001 -23.2061 -67.1039 6.5457 14.9371 47.1345 0.6980 -5.1578 -14.8830 1.5939 -7.9635 -22.6031 0.0000 0.0000 0.0000 0.9927 20.2402 -67.5044 -7.3520 -15.6213 50.1935 -1.1619 -1.1276 -20.8054 -1.1692 6.8637 -19.3123 -3.1013 0.5746 20.3320 0.5270 0.1071 1.1964 2.3206 0.2094 -10.1149 -18.4809 -10.2810 -3.8021 30.7199 -10.9695 -17.4378 12.9847 -5.9813 -0.9939 -0.0000 0.0000 0.0000 -83.8835 -61.4677 43.2489 107.6472 -58.7900 -75.2208 -0.0000 -0.0000 15.2613 -14.1172 33.4737 -7.8975 -7.1250 0.0000 -0.0000 -49.7669 56.3241 -16.6710 -0.0000 0.0000 0.0000 93.0623 55.3273 43.7320 -108.3024 58.6957 -75.7809 0.0000 0.0000 30.1019 13.3300 2.1520 0.5098 7.1250 -0.0000 -0.0000 29.4521 -27.0410 14.7553
-0.2116 16.1655 -2.2386 2.5244 2.6262 36.6062 0.0000 0.0000 0.0000 -1.5795 -23.4284 -66.6559 6.2762 14.6907 46.0802 0.6661 -4.9722 -14.5377 1.6185 -8.0216 -22.7798 0.0000 0.0000 0.0000 0.9110 20.1770 -67.0792 -7.0912 -15.4082 49.2183 -1.1163 -1.4144 -20.5199 -1.1650 6.8520 -19.2775 -2.7510 0.4612 20.3053 0.4211 0.0271 1.1202 2.0265 0.1548 -10.1795 -18.3542 -10.3345 -4.0042 30.4892 -11.0712 -17.2111 12.8334 -6.0052 -0.9053 -0.0000 0.0000 0.0000 -84.3531 -60.4918 43.7132 107.2947 -58.8391 -74.9193 -0.0000 -0.0000 15.1636 -14.0931 33.2546 -7.8385 -7.1250 0.0000 -0.0000 -49.5197 56.1753 -16.3627 -0.0000 0.0000 0.0000 93.2477 54.6066 44.1709 -108.0086 58.7384 -75.5299 0.0000 0.0000 29.6657 13.1299 2.0231 0.4718 7.1250 -0.0000 -0.0000 29.3545 -27.1692 14.5858
-0.2102 16.2181 -2.2283 2.5357 2.7965 36.9914 0.0000 0.0000 0.0000 -1.4764 -23.5531 -66.4062 5.9966 14.4251 44.9682 0.6279 -4.7809 -14.1119 1.6063 -7.9927 -22.6921 0.0000 0.0000 0.0000 0.8724 20.2082 -66.8246 -6.8217 -15.1799 48.1966 -1.0653 -1.7306 -20.1947 -1.1671 6.8577 -19.2946 -2.3152 0.3820 20.0157 0.3464 0.0208 1.0311 1.6959 0.1293 -10.1172 -18.2925 -10.4122 -4.0257 30.3859 -11.1945 -17.1624 12.7611 -6.0623 -0.8733 -0.0000 -0.0000 0.0000 -84.7551 -59.6019 44.3424 107.1322 -58.8614 -74.7802 -0.0000 -0.0000 14.7977 -13.7121 33.5232 -7.6746 -7.1250 0.0000 -0.0000 -49.4694 56.4450 -16.6878 -0.0000 -0.0000 0.0000 93.2060 53.8955 44.4957 -107.6881 58.7842 -75.2558 0.0000 0.0000 28.9978 12.8206 1.7257 0.3926 7.1250 -0.0000 -0.0000 29.2287 -27.4550 14.2707
-0.2114 16.2761 -2.2148 2.5176 2.9220 37.3194 0.0000 0.0000 0.0000 -1.4279 -23.5912 -66.0319 5.7058 14.1371 43.7894 0.5908 -4.6567 -13.6853 1.5443 -7.8442 -22.2418 0.0000 0.0000 0.0000 0.8742 20.2977 -66.4426 -6.5408 -14.9327 47.1156 -1.0116 -2.0713 -19.8525 -1.1850 6.9083 -19.4441 -2.0207 0.3495 19.7234 0.3403 0.0495 0.9792 1.5119 0.1280 -10.0133 -18.2655 -10.4445 -3.9076 30.3010 -11.2391 -17.2965 12.7327 -6.0954 -0.9313 -0.0000 0.0000 0.0000 -85.0005 -58.7155 44.8994 106.9265 -58.8893 -74.6041 -0.0000 -0.0000 14.1879 -12.6589 33.6038 -7.0860 -7.1250 0.0000 -0.0000 -48.6400 56.7269 -16.6569 -0.0000 0.0000 0.0000 93.0665 53.2241 44.6784 -107.4823 58.8131 -75.0797 0.0000 0.0000 28.6785 13.0296 1.5344 0.3550 7.1250 -0.0000 -0.0000 29.4181 -27.6126 14.2622
-0.2148 16.3383 -2.1978 2.6178 2.9755 37.5472 0.0000 0.0000 0.0000 -1.5703 -23.6685 -65.4713 5.4143 13.8357 42.5831 0.5589 -4.4685 -13.3104 1.4726 -7.6682 -21.7108 0.0000 0.0000 0.0000 0.8238 20.3056 -65.9318 -6.2585 -14.6742 46.0104 -0.9594 -2.3592 -19.4960 -1.1936 6.9326 -19.5158 -1.9495 0.3161 19.5128 0.3363 0.0255 0.9631 1.4729 0.1123 -9.9130 -18.2630 -10.4616 -3.9498 30.2221 -11.2639 -17.2895 12.6961 -6.1010 -0.9250 -0.0000 0.0000 0.0000 -85.2228 -57.8962 45.0074 106.6567 -58.9253 -74.3731 -0.0000 -0.0000 14.3481 -13.4505 32.6715 -7.3566 -7.1250 0.0000 -0.0000 -48.3737 55.8959 -15.4853 -0.0000 0.0000 0.0000 92.9859 52.6431 44.8788 -107.2652 58.8432 -74.8940 0.0000 0.0000 28.5736 13.4937 1.5638 0.3752 7.1250 -0.0000 -0.0000 29.7168 -27.5558 14.5007
